<svg xmlns="http://www.w3.org/2000/svg" viewBox="0 0 512 512">
  <rect width="512" height="512" rx="96" fill="#0d1520"/>
  <rect x="24" y="24" width="464" height="464" rx="80" fill="none" stroke="#d4a843" stroke-width="4"/>
  <!-- Shield -->
  <path d="M256 96c-60 0-120 32-120 32v144c0 80 120 144 120 144s120-64 120-144V128s-60-32-120-32z" fill="none" stroke="#d4a843" stroke-width="16" stroke-linejoin="round"/>
  <path d="M256 128c-44 0-88 24-88 24v112c0 60 88 108 88 108s88-48 88-108V152s-44-24-88-24z" fill="rgba(212,168,67,0.15)"/>
  <!-- Check -->
  <path d="M216 260l28 28 52-56" fill="none" stroke="#4a9e7e" stroke-width="16" stroke-linecap="round" stroke-linejoin="round"/>
  <!-- EL text -->
  <text x="256" y="420" text-anchor="middle" font-family="system-ui,sans-serif" font-size="48" font-weight="700" fill="#d4a843">ADMIN</text>
</svg>
